# Blender v2.79 (sub 0) OBJ File: ''
# www.blender.org
mtllib Leveldemo.mtl
o Cube_Cube.001
v -1.000000 0.000000 2.035546
v -1.000000 0.000000 0.035546
v 0.500000 0.500000 1.535546
v 2.000000 1.000000 0.035546
v 0.000000 0.000000 0.035546
v -1.000000 0.000000 1.035546
v 0.500000 0.250000 1.035546
v 0.000000 0.000000 1.035546
v -1.000000 1.000000 2.035546
v -1.000000 1.000000 0.035546
v 1.000000 0.000000 0.035546
v 0.000000 1.000000 2.035546
v 0.000000 1.000000 0.035546
v -1.000000 1.000000 1.035546
v -1.000000 0.000000 1.535546
v -1.000000 0.500000 0.035546
v -0.500000 0.000000 0.035546
v 1.000000 0.500000 0.035546
v 2.500000 0.000000 0.035546
v 1.000000 0.500000 2.035546
v -0.500000 0.500000 1.535546
v 0.500000 0.000000 0.035546
v -0.500000 0.000000 2.035546
v 0.000000 0.000000 0.535546
v -1.000000 0.000000 0.535546
v 1.000000 0.250000 1.035546
v 0.000000 0.000000 1.535546
v -0.500000 0.000000 1.035546
v 0.500000 0.000000 1.035546
v -1.000000 0.500000 2.035546
v 0.000000 0.500000 2.035546
v 0.000000 0.500000 0.035546
v -1.000000 0.500000 1.035546
v -1.000000 1.000000 1.535546
v -0.500000 1.000000 0.035546
v 0.500000 1.000000 2.035546
v -0.500000 1.000000 2.035546
v 0.500000 1.000000 0.035546
v -1.000000 1.000000 0.535546
v -1.000000 0.500000 0.535546
v 0.500000 0.500000 0.035546
v 1.000000 0.500000 1.535546
v -0.500000 0.500000 2.035546
v 0.500000 0.500000 2.035546
v -0.500000 0.500000 0.035546
v -1.000000 0.500000 1.535546
v 0.500000 0.000000 0.535546
v -0.500000 0.000000 0.535546
v -0.500000 0.000000 1.535546
v 0.500000 0.000000 1.535546
v 0.000000 0.500000 1.535546
v 1.500000 0.000000 0.035546
v 3.000000 0.000000 0.035546
v 3.000000 1.000000 0.035546
v 3.000000 1.000000 2.035546
v 3.000000 0.500000 0.035546
v 3.000000 0.000000 0.535546
v 3.000000 0.500000 2.035546
v 3.000000 0.000000 1.035546
v 3.000000 0.000000 2.035546
v 3.000000 0.000000 1.535546
v 2.000000 0.000000 0.035546
v 2.000000 0.000000 2.035546
v 2.000000 0.000000 1.035546
v 1.000000 0.000000 0.535546
v 1.500000 0.000000 2.035546
v 1.000000 0.000000 1.035546
v 2.500000 0.000000 1.035546
v 2.500000 0.000000 2.035546
v 1.500000 0.000000 1.035546
v 2.000000 0.000000 0.535546
v 2.000000 0.000000 1.535546
v 1.500000 0.000000 1.535546
v 1.500000 0.000000 0.535546
v 2.500000 0.000000 0.535546
v 2.500000 0.000000 1.535546
v 1.000000 0.000000 2.035546
v 1.000000 0.000000 1.535546
v 2.000000 1.000000 2.035546
v 1.000000 1.000000 2.035546
v 2.500000 1.000000 2.035546
v 1.500000 1.000000 2.035546
v 2.000000 0.500000 2.035546
v 1.500000 0.500000 2.035546
v 2.500000 0.500000 2.035546
v 1.000000 1.000000 0.035546
v 2.500000 1.000000 0.035546
v 1.500000 1.000000 0.035546
v 2.000000 0.500000 0.035546
v 1.500000 0.500000 0.035546
v 2.500000 0.500000 0.035546
v 4.000000 1.000000 0.035546
v 4.500000 0.000000 0.035546
v 3.500000 0.000000 0.035546
v 5.000000 0.000000 0.035546
v 5.000000 1.000000 0.035546
v 5.000000 1.000000 2.035546
v 5.000000 1.000000 1.035546
v 5.000000 0.500000 0.035546
v 5.000000 0.000000 0.535546
v 5.000000 0.500000 2.035546
v 5.000000 0.000000 1.035546
v 5.000000 0.500000 1.035546
v 5.000000 1.000000 0.535546
v 5.000000 1.000000 1.535546
v 5.000000 0.500000 1.535546
v 5.000000 0.500000 0.535546
v 5.000000 0.000000 2.035546
v 5.000000 0.000000 1.535546
v 4.000000 0.000000 0.035546
v 4.000000 0.000000 2.035546
v 4.000000 0.000000 1.035546
v 3.500000 0.000000 2.035546
v 4.500000 0.000000 1.035546
v 4.500000 0.000000 2.035546
v 3.500000 0.000000 1.035546
v 4.000000 0.000000 0.535546
v 4.000000 0.000000 1.535546
v 3.500000 0.000000 1.535546
v 3.500000 0.000000 0.535546
v 4.500000 0.000000 0.535546
v 4.500000 0.000000 1.535546
v 4.000000 1.000000 2.035546
v 4.500000 1.000000 2.035546
v 3.500000 1.000000 2.035546
v 4.000000 0.500000 2.035546
v 3.500000 0.500000 2.035546
v 4.500000 0.500000 2.035546
v 4.500000 1.000000 0.035546
v 3.500000 1.000000 0.035546
v 4.000000 0.500000 0.035546
v 3.500000 0.500000 0.035546
v 4.500000 0.500000 0.035546
v 2.000000 0.500000 0.535546
v 2.500000 0.500000 0.535546
v -1.000000 0.000000 -2.035546
v -1.000000 0.000000 -0.035546
v 0.500000 0.500000 -1.535546
v 2.000000 1.000000 -0.035546
v 0.000000 0.000000 -0.035546
v -1.000000 0.000000 -1.035546
v 0.500000 0.250000 -1.035546
v 0.000000 0.000000 -1.035546
v -1.000000 1.000000 -2.035546
v -1.000000 1.000000 -0.035546
v 1.000000 0.000000 -0.035546
v 0.000000 1.000000 -2.035546
v 0.000000 1.000000 -0.035546
v -1.000000 1.000000 -1.035546
v -1.000000 0.000000 -1.535546
v -1.000000 0.500000 -0.035546
v -0.500000 0.000000 -0.035546
v 1.000000 0.500000 -0.035546
v 2.500000 0.000000 -0.035546
v 1.000000 0.500000 -2.035546
v -0.500000 0.500000 -1.535546
v 0.500000 0.000000 -0.035546
v -0.500000 0.000000 -2.035546
v 0.000000 0.000000 -0.535546
v -1.000000 0.000000 -0.535546
v 1.000000 0.250000 -1.035546
v 0.000000 0.000000 -1.535546
v -0.500000 0.000000 -1.035546
v 0.500000 0.000000 -1.035546
v -1.000000 0.500000 -2.035546
v 0.000000 0.500000 -2.035546
v 0.000000 0.500000 -0.035546
v -1.000000 0.500000 -1.035546
v -1.000000 1.000000 -1.535546
v -0.500000 1.000000 -0.035546
v 0.500000 1.000000 -2.035546
v -0.500000 1.000000 -2.035546
v 0.500000 1.000000 -0.035546
v -1.000000 1.000000 -0.535546
v -1.000000 0.500000 -0.535546
v 0.500000 0.500000 -0.035546
v 1.000000 0.500000 -1.535546
v -0.500000 0.500000 -2.035546
v 0.500000 0.500000 -2.035546
v -0.500000 0.500000 -0.035546
v -1.000000 0.500000 -1.535546
v 0.500000 0.000000 -0.535546
v -0.500000 0.000000 -0.535546
v -0.500000 0.000000 -1.535546
v 0.500000 0.000000 -1.535546
v 0.000000 0.500000 -1.535546
v 1.500000 0.000000 -0.035546
v 3.000000 0.000000 -0.035546
v 3.000000 1.000000 -0.035546
v 3.000000 1.000000 -2.035546
v 3.000000 0.500000 -0.035546
v 3.000000 0.000000 -0.535546
v 3.000000 0.500000 -2.035546
v 3.000000 0.000000 -1.035546
v 3.000000 0.000000 -2.035546
v 3.000000 0.000000 -1.535546
v 2.000000 0.000000 -0.035546
v 2.000000 0.000000 -2.035546
v 2.000000 0.000000 -1.035546
v 1.000000 0.000000 -0.535546
v 1.500000 0.000000 -2.035546
v 1.000000 0.000000 -1.035546
v 2.500000 0.000000 -1.035546
v 2.500000 0.000000 -2.035546
v 1.500000 0.000000 -1.035546
v 2.000000 0.000000 -0.535546
v 2.000000 0.000000 -1.535546
v 1.500000 0.000000 -1.535546
v 1.500000 0.000000 -0.535546
v 2.500000 0.000000 -0.535546
v 2.500000 0.000000 -1.535546
v 1.000000 0.000000 -2.035546
v 1.000000 0.000000 -1.535546
v 2.000000 1.000000 -2.035546
v 1.000000 1.000000 -2.035546
v 2.500000 1.000000 -2.035546
v 1.500000 1.000000 -2.035546
v 2.000000 0.500000 -2.035546
v 1.500000 0.500000 -2.035546
v 2.500000 0.500000 -2.035546
v 1.000000 1.000000 -0.035546
v 2.500000 1.000000 -0.035546
v 1.500000 1.000000 -0.035546
v 2.000000 0.500000 -0.035546
v 1.500000 0.500000 -0.035546
v 2.500000 0.500000 -0.035546
v 4.000000 1.000000 -0.035546
v 4.500000 0.000000 -0.035546
v 3.500000 0.000000 -0.035546
v 5.000000 0.000000 -0.035546
v 5.000000 1.000000 -0.035546
v 5.000000 1.000000 -2.035546
v 5.000000 1.000000 -1.035546
v 5.000000 0.500000 -0.035546
v 5.000000 0.000000 -0.535546
v 5.000000 0.500000 -2.035546
v 5.000000 0.000000 -1.035546
v 5.000000 0.500000 -1.035546
v 5.000000 1.000000 -0.535546
v 5.000000 1.000000 -1.535546
v 5.000000 0.500000 -1.535546
v 5.000000 0.500000 -0.535546
v 5.000000 0.000000 -2.035546
v 5.000000 0.000000 -1.535546
v 4.000000 0.000000 -0.035546
v 4.000000 0.000000 -2.035546
v 4.000000 0.000000 -1.035546
v 3.500000 0.000000 -2.035546
v 4.500000 0.000000 -1.035546
v 4.500000 0.000000 -2.035546
v 3.500000 0.000000 -1.035546
v 4.000000 0.000000 -0.535546
v 4.000000 0.000000 -1.535546
v 3.500000 0.000000 -1.535546
v 3.500000 0.000000 -0.535546
v 4.500000 0.000000 -0.535546
v 4.500000 0.000000 -1.535546
v 4.000000 1.000000 -2.035546
v 4.500000 1.000000 -2.035546
v 3.500000 1.000000 -2.035546
v 4.000000 0.500000 -2.035546
v 3.500000 0.500000 -2.035546
v 4.500000 0.500000 -2.035546
v 4.500000 1.000000 -0.035546
v 3.500000 1.000000 -0.035546
v 4.000000 0.500000 -0.035546
v 3.500000 0.500000 -0.035546
v 4.500000 0.500000 -0.035546
v 2.000000 0.500000 -0.535546
v 2.500000 0.500000 -0.535546
vn 0.0000 0.0000 1.0000
vn 0.0000 0.0000 -1.0000
vn -1.0000 0.0000 0.0000
vn 0.0000 1.0000 0.0000
vn 1.0000 0.0000 0.0000
vn 0.0000 0.8944 -0.4472
vn 0.0000 0.8944 0.4472
usemtl Mirror
s off
f 45//1 32//1 13//1 35//1
f 41//1 18//1 86//1 38//1
f 32//1 41//1 38//1 13//1
f 5//1 22//1 41//1 32//1
f 22//1 11//1 18//1 41//1
f 16//1 45//1 35//1 10//1
f 2//1 17//1 45//1 16//1
f 17//1 5//1 32//1 45//1
f 91//1 56//1 54//1 87//1
f 90//1 89//1 4//1 88//1
f 88//1 86//1 18//1 90//1
f 52//1 62//1 89//1 90//1
f 11//1 52//1 90//1 18//1
f 19//1 53//1 56//1 91//1
f 89//1 91//1 87//1 4//1
f 93//1 95//1 99//1 133//1
f 132//1 131//1 92//1 130//1
f 130//1 54//1 56//1 132//1
f 94//1 110//1 131//1 132//1
f 53//1 94//1 132//1 56//1
f 133//1 99//1 96//1 129//1
f 110//1 93//1 133//1 131//1
f 131//1 133//1 129//1 92//1
f 180//2 170//2 148//2 167//2
f 176//2 173//2 221//2 153//2
f 167//2 148//2 173//2 176//2
f 140//2 167//2 176//2 157//2
f 157//2 176//2 153//2 146//2
f 151//2 145//2 170//2 180//2
f 137//2 151//2 180//2 152//2
f 152//2 180//2 167//2 140//2
f 226//2 222//2 189//2 191//2
f 225//2 223//2 139//2 224//2
f 223//2 225//2 153//2 221//2
f 187//2 225//2 224//2 197//2
f 146//2 153//2 225//2 187//2
f 154//2 226//2 191//2 188//2
f 224//2 139//2 222//2 226//2
f 228//2 268//2 234//2 230//2
f 267//2 265//2 227//2 266//2
f 265//2 267//2 191//2 189//2
f 229//2 267//2 266//2 245//2
f 188//2 191//2 267//2 229//2
f 268//2 264//2 231//2 234//2
f 245//2 266//2 268//2 228//2
f 266//2 227//2 264//2 268//2
usemtl Default
f 29//3 50//3 3//3 7//3
f 48//4 28//4 8//4 24//4
f 7//3 47//3 29//3
f 46//5 33//5 14//5 34//5
f 44//2 31//2 12//2 36//2
f 43//2 30//2 9//2 37//2
f 40//5 16//5 10//5 39//5
f 25//5 2//5 16//5 40//5
f 7//6 26//6 65//6 47//6
f 31//2 43//2 37//2 12//2
f 43//3 21//3 49//3 23//3
f 23//2 1//2 30//2 43//2
f 20//2 44//2 36//2 80//2
f 21//4 43//4 31//4 51//4
f 30//5 46//5 34//5 9//5
f 15//5 6//5 33//5 46//5
f 22//4 47//4 65//4 11//4
f 5//4 24//4 47//4 22//4
f 24//4 8//4 29//4 47//4
f 17//4 48//4 24//4 5//4
f 2//4 25//4 48//4 17//4
f 25//4 6//4 28//4 48//4
f 28//4 49//4 27//4 8//4
f 6//4 15//4 49//4 28//4
f 1//5 15//5 46//5 30//5
f 15//4 1//4 23//4 49//4
f 8//4 27//4 50//4 29//4
f 51//2 27//2 49//2 21//2
f 7//6 3//6 42//6 26//6
f 42//4 3//4 44//4 20//4
f 50//2 27//2 51//2 3//2
f 51//4 31//4 44//4 3//4
f 75//4 68//4 59//4 57//4
f 74//4 70//4 64//4 71//4
f 76//4 69//4 60//4 61//4
f 70//4 73//4 72//4 64//4
f 70//4 74//4 65//4 67//4
f 52//4 74//4 71//4 62//4
f 11//4 65//4 74//4 52//4
f 73//4 66//4 63//4 72//4
f 19//4 75//4 57//4 53//4
f 135//1 134//1 71//1 75//1
f 71//4 64//4 68//4 75//4
f 68//4 76//4 61//4 59//4
f 64//4 72//4 76//4 68//4
f 66//4 73//4 78//4 77//4
f 67//4 78//4 73//4 70//4
f 67//5 65//5 26//5
f 42//5 78//5 67//5 26//5
f 72//4 63//4 69//4 76//4
f 85//2 81//2 55//2 58//2
f 84//2 82//2 79//2 83//2
f 82//2 84//2 20//2 80//2
f 66//2 84//2 83//2 63//2
f 77//2 20//2 84//2 66//2
f 69//2 85//2 58//2 60//2
f 63//2 83//2 85//2 69//2
f 83//2 79//2 81//2 85//2
f 19//5 91//5 135//5 75//5
f 107//3 103//3 98//3 104//3
f 42//5 20//5 77//5 78//5
f 103//3 106//3 105//3 98//3
f 103//3 107//3 100//3 102//3
f 99//3 107//3 104//3 96//3
f 95//3 100//3 107//3 99//3
f 106//3 101//3 97//3 105//3
f 102//3 109//3 106//3 103//3
f 101//3 106//3 109//3 108//3
f 120//4 116//4 112//4 117//4
f 116//4 119//4 118//4 112//4
f 116//4 120//4 57//4 59//4
f 94//4 120//4 117//4 110//4
f 53//4 57//4 120//4 94//4
f 119//4 113//4 111//4 118//4
f 121//4 114//4 102//4 100//4
f 110//4 117//4 121//4 93//4
f 117//4 112//4 114//4 121//4
f 93//4 121//4 100//4 95//4
f 112//4 118//4 122//4 114//4
f 113//4 119//4 61//4 60//4
f 59//4 61//4 119//4 116//4
f 114//4 122//4 109//4 102//4
f 127//2 125//2 123//2 126//2
f 125//2 127//2 58//2 55//2
f 113//2 127//2 126//2 111//2
f 60//2 58//2 127//2 113//2
f 128//2 124//2 97//2 101//2
f 111//2 126//2 128//2 115//2
f 126//2 123//2 124//2 128//2
f 115//2 128//2 101//2 108//2
f 71//3 134//3 89//3 62//3
f 91//4 89//4 134//4 135//4
f 122//4 115//4 108//4 109//4
f 118//4 111//4 115//4 122//4
f 164//3 142//3 138//3 185//3
f 183//4 159//4 143//4 163//4
f 142//3 164//3 182//3
f 181//5 169//5 149//5 168//5
f 179//1 171//1 147//1 166//1
f 178//1 172//1 144//1 165//1
f 175//5 174//5 145//5 151//5
f 160//5 175//5 151//5 137//5
f 142//7 182//7 200//7 161//7
f 166//1 147//1 172//1 178//1
f 178//3 158//3 184//3 156//3
f 158//1 178//1 165//1 136//1
f 155//1 215//1 171//1 179//1
f 156//4 186//4 166//4 178//4
f 165//5 144//5 169//5 181//5
f 150//5 181//5 168//5 141//5
f 157//4 146//4 200//4 182//4
f 140//4 157//4 182//4 159//4
f 159//4 182//4 164//4 143//4
f 152//4 140//4 159//4 183//4
f 137//4 152//4 183//4 160//4
f 160//4 183//4 163//4 141//4
f 163//4 143//4 162//4 184//4
f 141//4 163//4 184//4 150//4
f 136//5 165//5 181//5 150//5
f 150//4 184//4 158//4 136//4
f 143//4 164//4 185//4 162//4
f 186//1 156//1 184//1 162//1
f 142//7 161//7 177//7 138//7
f 177//4 155//4 179//4 138//4
f 185//1 138//1 186//1 162//1
f 186//4 138//4 179//4 166//4
f 210//4 192//4 194//4 203//4
f 209//4 206//4 199//4 205//4
f 211//4 196//4 195//4 204//4
f 205//4 199//4 207//4 208//4
f 205//4 202//4 200//4 209//4
f 187//4 197//4 206//4 209//4
f 146//4 187//4 209//4 200//4
f 208//4 207//4 198//4 201//4
f 154//4 188//4 192//4 210//4
f 270//2 210//2 206//2 269//2
f 206//4 210//4 203//4 199//4
f 203//4 194//4 196//4 211//4
f 199//4 203//4 211//4 207//4
f 201//4 212//4 213//4 208//4
f 202//4 205//4 208//4 213//4
f 202//5 161//5 200//5
f 177//5 161//5 202//5 213//5
f 207//4 211//4 204//4 198//4
f 220//1 193//1 190//1 216//1
f 219//1 218//1 214//1 217//1
f 217//1 215//1 155//1 219//1
f 201//1 198//1 218//1 219//1
f 212//1 201//1 219//1 155//1
f 204//1 195//1 193//1 220//1
f 198//1 204//1 220//1 218//1
f 218//1 220//1 216//1 214//1
f 154//5 210//5 270//5 226//5
f 242//3 239//3 233//3 238//3
f 177//5 213//5 212//5 155//5
f 238//3 233//3 240//3 241//3
f 238//3 237//3 235//3 242//3
f 234//3 231//3 239//3 242//3
f 230//3 234//3 242//3 235//3
f 241//3 240//3 232//3 236//3
f 237//3 238//3 241//3 244//3
f 236//3 243//3 244//3 241//3
f 255//4 252//4 247//4 251//4
f 251//4 247//4 253//4 254//4
f 251//4 194//4 192//4 255//4
f 229//4 245//4 252//4 255//4
f 188//4 229//4 255//4 192//4
f 254//4 253//4 246//4 248//4
f 256//4 235//4 237//4 249//4
f 245//4 228//4 256//4 252//4
f 252//4 256//4 249//4 247//4
f 228//4 230//4 235//4 256//4
f 247//4 249//4 257//4 253//4
f 248//4 195//4 196//4 254//4
f 194//4 251//4 254//4 196//4
f 249//4 237//4 244//4 257//4
f 262//1 261//1 258//1 260//1
f 260//1 190//1 193//1 262//1
f 248//1 246//1 261//1 262//1
f 195//1 248//1 262//1 193//1
f 263//1 236//1 232//1 259//1
f 246//1 250//1 263//1 261//1
f 261//1 263//1 259//1 258//1
f 250//1 243//1 236//1 263//1
f 206//3 197//3 224//3 269//3
f 226//4 270//4 269//4 224//4
f 257//4 244//4 243//4 250//4
f 253//4 257//4 250//4 246//4
