# Blender v2.79 (sub 0) OBJ File: 'Tiles.blend'
# www.blender.org
mtllib StandardBlock.mtl
o Cube_Cube.001
v 0.050000 -1.000000 0.950000
v 0.050000 -0.950000 1.000000
v 0.000000 -0.950000 0.950000
v 0.050000 -0.996194 0.969134
v 0.050000 -0.985355 0.985355
v 0.030866 -0.996194 0.950000
v 0.030386 -0.991601 0.969614
v 0.031381 -0.982813 0.982813
v 0.021132 -0.978868 0.978868
v 0.030866 -0.950000 0.996194
v 0.014645 -0.950000 0.985355
v 0.050000 -0.969134 0.996194
v 0.030386 -0.969614 0.991601
v 0.017187 -0.968619 0.982813
v 0.003806 -0.969134 0.950000
v 0.014645 -0.985355 0.950000
v 0.003806 -0.950000 0.969134
v 0.008399 -0.969614 0.969614
v 0.017187 -0.982813 0.968619
v 0.050000 0.950000 1.000000
v 0.050000 1.000000 0.950000
v 0.000000 0.950000 0.950000
v 0.050000 0.969134 0.996194
v 0.050000 0.985355 0.985355
v 0.030866 0.950000 0.996194
v 0.030386 0.969614 0.991601
v 0.031381 0.982813 0.982813
v 0.021132 0.978868 0.978868
v 0.030866 0.996194 0.950000
v 0.014645 0.985355 0.950000
v 0.050000 0.996194 0.969134
v 0.030386 0.991601 0.969614
v 0.017187 0.982813 0.968619
v 0.003806 0.950000 0.969134
v 0.014645 0.950000 0.985355
v 0.003806 0.969134 0.950000
v 0.008399 0.969614 0.969614
v 0.017187 0.968619 0.982813
v 0.050000 -1.000000 -0.950000
v 0.000000 -0.950000 -0.950000
v 0.050000 -0.950000 -1.000000
v 0.030866 -0.996194 -0.950000
v 0.014645 -0.985355 -0.950000
v 0.050000 -0.996194 -0.969134
v 0.030386 -0.991601 -0.969614
v 0.017187 -0.982813 -0.968619
v 0.021132 -0.978868 -0.978868
v 0.003806 -0.950000 -0.969134
v 0.014645 -0.950000 -0.985355
v 0.003806 -0.969134 -0.950000
v 0.008399 -0.969614 -0.969614
v 0.017187 -0.968619 -0.982813
v 0.050000 -0.969134 -0.996194
v 0.050000 -0.985355 -0.985355
v 0.030866 -0.950000 -0.996194
v 0.030386 -0.969614 -0.991601
v 0.031381 -0.982813 -0.982813
v 0.050000 1.000000 -0.950000
v 0.050000 0.950000 -1.000000
v 0.000000 0.950000 -0.950000
v 0.050000 0.996194 -0.969134
v 0.050000 0.985355 -0.985355
v 0.030866 0.996194 -0.950000
v 0.030386 0.991601 -0.969614
v 0.031381 0.982813 -0.982813
v 0.021132 0.978868 -0.978868
v 0.030866 0.950000 -0.996194
v 0.014645 0.950000 -0.985355
v 0.050000 0.969134 -0.996194
v 0.030386 0.969614 -0.991601
v 0.017187 0.968619 -0.982813
v 0.003806 0.969134 -0.950000
v 0.014645 0.985355 -0.950000
v 0.003806 0.950000 -0.969134
v 0.008399 0.969614 -0.969614
v 0.017187 0.982813 -0.968619
v 0.950000 -1.000000 0.950000
v 1.000000 -0.950000 0.950000
v 0.950000 -0.950000 1.000000
v 0.969134 -0.996194 0.950000
v 0.985355 -0.985355 0.950000
v 0.950000 -0.996194 0.969134
v 0.969614 -0.991601 0.969614
v 0.982813 -0.982813 0.968619
v 0.978868 -0.978868 0.978868
v 0.996194 -0.950000 0.969134
v 0.985355 -0.950000 0.985355
v 0.996194 -0.969134 0.950000
v 0.991601 -0.969614 0.969614
v 0.982813 -0.968619 0.982813
v 0.950000 -0.969134 0.996194
v 0.950000 -0.985355 0.985355
v 0.969134 -0.950000 0.996194
v 0.969614 -0.969614 0.991601
v 0.968619 -0.982813 0.982813
v 0.950000 1.000000 0.950000
v 0.950000 0.950000 1.000000
v 1.000000 0.950000 0.950000
v 0.950000 0.996194 0.969134
v 0.950000 0.985355 0.985355
v 0.969134 0.996194 0.950000
v 0.969614 0.991601 0.969614
v 0.968619 0.982813 0.982813
v 0.978868 0.978868 0.978868
v 0.969134 0.950000 0.996194
v 0.985355 0.950000 0.985355
v 0.950000 0.969134 0.996194
v 0.969614 0.969614 0.991601
v 0.982813 0.968619 0.982813
v 0.996194 0.969134 0.950000
v 0.985355 0.985355 0.950000
v 0.996194 0.950000 0.969134
v 0.991601 0.969614 0.969614
v 0.982813 0.982813 0.968619
v 0.950000 -1.000000 -0.950000
v 0.950000 -0.950000 -1.000000
v 1.000000 -0.950000 -0.950000
v 0.950000 -0.996194 -0.969134
v 0.950000 -0.985355 -0.985355
v 0.969134 -0.996194 -0.950000
v 0.969614 -0.991601 -0.969614
v 0.968619 -0.982813 -0.982813
v 0.978868 -0.978868 -0.978868
v 0.969134 -0.950000 -0.996194
v 0.985355 -0.950000 -0.985355
v 0.950000 -0.969134 -0.996194
v 0.969614 -0.969614 -0.991601
v 0.982813 -0.968619 -0.982813
v 0.996194 -0.969134 -0.950000
v 0.985355 -0.985355 -0.950000
v 0.996194 -0.950000 -0.969134
v 0.991601 -0.969614 -0.969614
v 0.982813 -0.982813 -0.968619
v 0.950000 1.000000 -0.950000
v 1.000000 0.950000 -0.950000
v 0.950000 0.950000 -1.000000
v 0.969134 0.996194 -0.950000
v 0.985355 0.985355 -0.950000
v 0.950000 0.996194 -0.969134
v 0.969614 0.991601 -0.969614
v 0.982813 0.982813 -0.968619
v 0.978868 0.978868 -0.978868
v 0.996194 0.950000 -0.969134
v 0.985355 0.950000 -0.985355
v 0.996194 0.969134 -0.950000
v 0.991601 0.969614 -0.969614
v 0.982813 0.968619 -0.982813
v 0.950000 0.969134 -0.996194
v 0.950000 0.985355 -0.985355
v 0.969134 0.950000 -0.996194
v 0.969614 0.969614 -0.991601
v 0.968619 0.982813 -0.982813
v -0.950000 -1.000000 0.950000
v -0.950000 -0.950000 1.000000
v -1.000000 -0.950000 0.950000
v -0.950000 -0.996194 0.969134
v -0.950000 -0.985355 0.985355
v -0.969134 -0.996194 0.950000
v -0.969614 -0.991601 0.969614
v -0.968619 -0.982813 0.982813
v -0.978868 -0.978868 0.978868
v -0.969134 -0.950000 0.996194
v -0.985355 -0.950000 0.985355
v -0.950000 -0.969134 0.996194
v -0.969614 -0.969614 0.991601
v -0.982813 -0.968619 0.982813
v -0.996194 -0.969134 0.950000
v -0.985355 -0.985355 0.950000
v -0.996194 -0.950000 0.969134
v -0.991601 -0.969614 0.969614
v -0.982813 -0.982813 0.968619
v -0.950000 0.950000 1.000000
v -0.950000 1.000000 0.950000
v -1.000000 0.950000 0.950000
v -0.950000 0.969134 0.996194
v -0.950000 0.985355 0.985355
v -0.969134 0.950000 0.996194
v -0.969614 0.969614 0.991601
v -0.968619 0.982813 0.982813
v -0.978868 0.978868 0.978868
v -0.969134 0.996194 0.950000
v -0.985355 0.985355 0.950000
v -0.950000 0.996194 0.969134
v -0.969614 0.991601 0.969614
v -0.982813 0.982813 0.968619
v -0.996194 0.950000 0.969134
v -0.985355 0.950000 0.985355
v -0.996194 0.969134 0.950000
v -0.991601 0.969614 0.969614
v -0.982813 0.968619 0.982813
v -0.950000 -1.000000 -0.950000
v -1.000000 -0.950000 -0.950000
v -0.950000 -0.950000 -1.000000
v -0.969134 -0.996194 -0.950000
v -0.985355 -0.985355 -0.950000
v -0.950000 -0.996194 -0.969134
v -0.969614 -0.991601 -0.969614
v -0.982813 -0.982813 -0.968619
v -0.978868 -0.978868 -0.978868
v -0.996194 -0.950000 -0.969134
v -0.985355 -0.950000 -0.985355
v -0.996194 -0.969134 -0.950000
v -0.991601 -0.969614 -0.969614
v -0.982813 -0.968619 -0.982813
v -0.950000 -0.969134 -0.996194
v -0.950000 -0.985355 -0.985355
v -0.969134 -0.950000 -0.996194
v -0.969614 -0.969614 -0.991601
v -0.968619 -0.982813 -0.982813
v -0.950000 1.000000 -0.950000
v -0.950000 0.950000 -1.000000
v -1.000000 0.950000 -0.950000
v -0.950000 0.996194 -0.969134
v -0.950000 0.985355 -0.985355
v -0.969134 0.996194 -0.950000
v -0.969614 0.991601 -0.969614
v -0.968619 0.982813 -0.982813
v -0.978868 0.978868 -0.978868
v -0.969134 0.950000 -0.996194
v -0.985355 0.950000 -0.985355
v -0.950000 0.969134 -0.996194
v -0.969614 0.969614 -0.991601
v -0.982813 0.968619 -0.982813
v -0.996194 0.969134 -0.950000
v -0.985355 0.985355 -0.950000
v -0.996194 0.950000 -0.969134
v -0.991601 0.969614 -0.969614
v -0.982813 0.982813 -0.968619
v -0.050000 -1.000000 0.950000
v -0.050000 -0.950000 1.000000
v -0.030866 -0.996194 0.950000
v -0.014645 -0.985355 0.950000
v -0.050000 -0.996194 0.969134
v -0.030386 -0.991601 0.969614
v -0.017187 -0.982813 0.968619
v -0.021132 -0.978868 0.978868
v -0.003806 -0.950000 0.969134
v -0.014645 -0.950000 0.985355
v -0.003806 -0.969134 0.950000
v -0.008399 -0.969614 0.969614
v -0.017187 -0.968619 0.982813
v -0.050000 -0.969134 0.996194
v -0.050000 -0.985355 0.985355
v -0.030866 -0.950000 0.996194
v -0.030386 -0.969614 0.991601
v -0.031381 -0.982813 0.982813
v -0.050000 1.000000 0.950000
v -0.050000 0.950000 1.000000
v -0.050000 0.996194 0.969134
v -0.050000 0.985355 0.985355
v -0.030866 0.996194 0.950000
v -0.030386 0.991601 0.969614
v -0.031381 0.982813 0.982813
v -0.021132 0.978868 0.978868
v -0.030866 0.950000 0.996194
v -0.014645 0.950000 0.985355
v -0.050000 0.969134 0.996194
v -0.030386 0.969614 0.991601
v -0.017187 0.968619 0.982813
v -0.003806 0.969134 0.950000
v -0.014645 0.985355 0.950000
v -0.003806 0.950000 0.969134
v -0.008399 0.969614 0.969614
v -0.017187 0.982813 0.968619
v -0.050000 -1.000000 -0.950000
v -0.050000 -0.950000 -1.000000
v -0.050000 -0.996194 -0.969134
v -0.050000 -0.985355 -0.985355
v -0.030866 -0.996194 -0.950000
v -0.030386 -0.991601 -0.969614
v -0.031381 -0.982813 -0.982813
v -0.021132 -0.978868 -0.978868
v -0.030866 -0.950000 -0.996194
v -0.014645 -0.950000 -0.985355
v -0.050000 -0.969134 -0.996194
v -0.030386 -0.969614 -0.991601
v -0.017187 -0.968619 -0.982813
v -0.003806 -0.969134 -0.950000
v -0.014645 -0.985355 -0.950000
v -0.003806 -0.950000 -0.969134
v -0.008399 -0.969614 -0.969614
v -0.017187 -0.982813 -0.968619
v -0.050000 1.000000 -0.950000
v -0.050000 0.950000 -1.000000
v -0.030866 0.996194 -0.950000
v -0.014645 0.985355 -0.950000
v -0.050000 0.996194 -0.969134
v -0.030386 0.991601 -0.969614
v -0.017187 0.982813 -0.968619
v -0.021132 0.978868 -0.978868
v -0.003806 0.950000 -0.969134
v -0.014645 0.950000 -0.985355
v -0.003806 0.969134 -0.950000
v -0.008399 0.969614 -0.969614
v -0.017187 0.968619 -0.982813
v -0.050000 0.969134 -0.996194
v -0.050000 0.985355 -0.985355
v -0.030866 0.950000 -0.996194
v -0.030386 0.969614 -0.991601
v -0.031381 0.982813 -0.982813
vn 0.1004 -0.1004 0.9899
vn 0.1004 0.1004 0.9899
vn -0.1004 0.1004 0.9899
vn -0.1004 -0.1004 0.9899
vn 0.9899 -0.1004 -0.1004
vn 0.9899 0.1004 -0.1004
vn 0.9899 0.1004 0.1004
vn 0.9899 -0.1004 0.1004
vn -0.1004 -0.9899 -0.1004
vn 0.1004 -0.9899 -0.1004
vn 0.1004 -0.9899 0.1004
vn -0.1004 -0.9899 0.1004
vn 0.1004 0.9899 -0.1004
vn -0.1004 0.9899 -0.1004
vn -0.1004 0.9899 0.1004
vn 0.1004 0.9899 0.1004
vn -0.1004 -0.1004 -0.9899
vn -0.1004 0.1004 -0.9899
vn 0.1004 0.1004 -0.9899
vn 0.1004 -0.1004 -0.9899
vn -0.9899 -0.1004 0.1004
vn -0.9899 0.1004 0.1004
vn -0.9899 0.1004 -0.1004
vn -0.9899 -0.1004 -0.1004
vn -0.0981 -0.9201 0.3792
vn -0.3673 -0.8545 0.3673
vn -0.3792 -0.9201 0.0981
vn -0.0919 -0.7041 0.7041
vn -0.3347 -0.6663 0.6663
vn -0.6663 -0.6663 0.3347
vn -0.7041 -0.7041 0.0919
vn -0.5773 -0.5774 0.5774
vn -0.3792 -0.0981 0.9201
vn -0.3673 -0.3673 0.8545
vn -0.0981 -0.3792 0.9201
vn -0.7041 -0.0919 0.7041
vn -0.6663 -0.3347 0.6663
vn 0.0000 -0.7071 0.7071
vn -0.9201 -0.3792 0.0981
vn -0.8545 -0.3673 0.3673
vn -0.9201 -0.0981 0.3792
vn -0.0981 0.3792 0.9201
vn -0.3673 0.3673 0.8545
vn -0.3792 0.0981 0.9201
vn -0.0919 0.7041 0.7041
vn -0.3347 0.6663 0.6663
vn -0.6663 0.3347 0.6663
vn -0.7041 0.0919 0.7041
vn -0.5774 0.5774 0.5773
vn -0.3792 0.9201 0.0981
vn -0.3673 0.8545 0.3673
vn -0.0981 0.9201 0.3792
vn -0.7041 0.7041 0.0919
vn -0.6663 0.6663 0.3347
vn -0.9819 0.1340 0.1340
vn -0.9201 0.0981 0.3792
vn -0.8545 0.3673 0.3673
vn -0.9201 0.3792 0.0981
vn -0.3792 -0.9201 -0.0981
vn -0.3673 -0.8545 -0.3673
vn -0.0981 -0.9201 -0.3792
vn -0.7041 -0.7041 -0.0919
vn -0.6663 -0.6663 -0.3347
vn -0.3347 -0.6663 -0.6663
vn -0.0919 -0.7041 -0.7041
vn -0.5774 -0.5774 -0.5773
vn 0.0000 -0.7071 -0.7071
vn -0.9201 -0.0981 -0.3792
vn -0.8545 -0.3673 -0.3673
vn -0.9201 -0.3792 -0.0981
vn -0.7041 -0.0919 -0.7041
vn -0.6663 -0.3347 -0.6663
vn -0.0981 -0.3792 -0.9201
vn -0.3673 -0.3673 -0.8545
vn -0.3792 -0.0981 -0.9201
vn -0.0981 0.9201 -0.3792
vn -0.3673 0.8545 -0.3673
vn -0.3792 0.9201 -0.0981
vn -0.0919 0.7041 -0.7041
vn -0.3347 0.6663 -0.6663
vn -0.6663 0.6663 -0.3347
vn -0.7041 0.7041 -0.0919
vn -0.5773 0.5774 -0.5774
vn -0.3792 0.0981 -0.9201
vn -0.3673 0.3673 -0.8545
vn -0.0981 0.3792 -0.9201
vn -0.7041 0.0919 -0.7041
vn -0.6663 0.3347 -0.6663
vn -0.9819 0.1340 -0.1340
vn -0.9201 0.3792 -0.0981
vn -0.8545 0.3673 -0.3673
vn -0.9201 0.0981 -0.3792
vn 0.3792 -0.9201 0.0981
vn 0.3673 -0.8545 0.3673
vn 0.0981 -0.9201 0.3792
vn 0.7041 -0.7041 0.0919
vn 0.6663 -0.6663 0.3347
vn 0.3347 -0.6663 0.6663
vn 0.0919 -0.7041 0.7041
vn 0.5774 -0.5774 0.5774
vn 0.9201 -0.0981 0.3792
vn 0.8545 -0.3673 0.3673
vn 0.9201 -0.3792 0.0981
vn 0.7041 -0.0919 0.7041
vn 0.6663 -0.3347 0.6663
vn 0.0981 -0.3792 0.9201
vn 0.3673 -0.3673 0.8545
vn 0.3792 -0.0981 0.9201
vn 0.0981 0.9201 0.3792
vn 0.3673 0.8545 0.3673
vn 0.3792 0.9201 0.0981
vn 0.0919 0.7041 0.7041
vn 0.3347 0.6663 0.6663
vn 0.6663 0.6663 0.3347
vn 0.7041 0.7041 0.0919
vn 0.5774 0.5774 0.5774
vn 0.3792 0.0981 0.9201
vn 0.3673 0.3673 0.8545
vn 0.0981 0.3792 0.9201
vn 0.7041 0.0919 0.7041
vn 0.6663 0.3347 0.6663
vn 0.9201 0.3792 0.0981
vn 0.8545 0.3673 0.3673
vn 0.9201 0.0981 0.3792
vn 0.0981 -0.9201 -0.3792
vn 0.3673 -0.8545 -0.3673
vn 0.3792 -0.9201 -0.0981
vn 0.0919 -0.7041 -0.7041
vn 0.3347 -0.6663 -0.6663
vn 0.6663 -0.6663 -0.3347
vn 0.7041 -0.7041 -0.0919
vn 0.5774 -0.5774 -0.5774
vn 0.3792 -0.0981 -0.9201
vn 0.3673 -0.3673 -0.8545
vn 0.0981 -0.3792 -0.9201
vn 0.7041 -0.0919 -0.7041
vn 0.6663 -0.3347 -0.6663
vn 0.9201 -0.3792 -0.0981
vn 0.8545 -0.3673 -0.3673
vn 0.9201 -0.0981 -0.3792
vn 0.3792 0.9201 -0.0981
vn 0.3673 0.8545 -0.3673
vn 0.0981 0.9201 -0.3792
vn 0.7041 0.7041 -0.0919
vn 0.6663 0.6663 -0.3347
vn 0.3347 0.6663 -0.6663
vn 0.0919 0.7041 -0.7041
vn 0.5774 0.5774 -0.5774
vn 0.9201 0.0981 -0.3792
vn 0.8545 0.3673 -0.3673
vn 0.9201 0.3792 -0.0981
vn 0.7041 0.0919 -0.7041
vn 0.6663 0.3347 -0.6663
vn 0.0981 0.3792 -0.9201
vn 0.3673 0.3673 -0.8545
vn 0.3792 0.0981 -0.9201
vn -0.5774 -0.5774 0.5774
vn -0.5774 0.5774 0.5774
vn -0.5774 -0.5774 -0.5774
vn -0.5774 0.5774 -0.5774
vn 0.5774 -0.5774 0.5773
vn 0.5773 0.5774 0.5774
vn 0.9819 0.1340 0.1340
vn 0.5773 -0.5774 -0.5774
vn 0.5774 0.5774 -0.5773
vn 0.9819 0.1340 -0.1340
usemtl None
s 1
f 79//1 97//2 20//3 2//4
f 117//5 135//6 98//7 78//8
f 191//9 265//10 229//11 153//12
f 134//13 58//14 21//15 96//16
f 41//17 59//18 136//19 116//20
f 230//1 248//2 172//3 154//4
f 283//13 210//14 173//15 247//16
f 155//21 174//22 212//23 192//24
f 193//17 211//18 284//19 266//20
f 1//12 4//25 7//26 6//27
f 4//25 5//28 8//29 7//26
f 6//27 7//26 19//30 16//31
f 7//26 8//29 9//32 19//30
f 2//4 10//33 13//34 12//35
f 10//33 11//36 14//37 13//34
f 12//35 13//34 8//29 5//28
f 13//34 14//37 9//32 8//29
f 3//38 15//39 18//40 17//41
f 15//39 16//31 19//30 18//40
f 17//41 18//40 14//37 11//36
f 18//40 19//30 9//32 14//37
f 20//3 23//42 26//43 25//44
f 23//42 24//45 27//46 26//43
f 25//44 26//43 38//47 35//48
f 26//43 27//46 28//49 38//47
f 21//15 29//50 32//51 31//52
f 29//50 30//53 33//54 32//51
f 31//52 32//51 27//46 24//45
f 32//51 33//54 28//49 27//46
f 22//55 34//56 37//57 36//58
f 34//56 35//48 38//47 37//57
f 36//58 37//57 33//54 30//53
f 37//57 38//47 28//49 33//54
f 39//9 42//59 45//60 44//61
f 42//59 43//62 46//63 45//60
f 44//61 45//60 57//64 54//65
f 45//60 46//63 47//66 57//64
f 40//67 48//68 51//69 50//70
f 48//68 49//71 52//72 51//69
f 50//70 51//69 46//63 43//62
f 51//69 52//72 47//66 46//63
f 41//17 53//73 56//74 55//75
f 53//73 54//65 57//64 56//74
f 55//75 56//74 52//72 49//71
f 56//74 57//64 47//66 52//72
f 58//14 61//76 64//77 63//78
f 61//76 62//79 65//80 64//77
f 63//78 64//77 76//81 73//82
f 64//77 65//80 66//83 76//81
f 59//18 67//84 70//85 69//86
f 67//84 68//87 71//88 70//85
f 69//86 70//85 65//80 62//79
f 70//85 71//88 66//83 65//80
f 60//89 72//90 75//91 74//92
f 72//90 73//82 76//81 75//91
f 74//92 75//91 71//88 68//87
f 75//91 76//81 66//83 71//88
f 77//11 80//93 83//94 82//95
f 80//93 81//96 84//97 83//94
f 82//95 83//94 95//98 92//99
f 83//94 84//97 85//100 95//98
f 78//8 86//101 89//102 88//103
f 86//101 87//104 90//105 89//102
f 88//103 89//102 84//97 81//96
f 89//102 90//105 85//100 84//97
f 79//1 91//106 94//107 93//108
f 91//106 92//99 95//98 94//107
f 93//108 94//107 90//105 87//104
f 94//107 95//98 85//100 90//105
f 96//16 99//109 102//110 101//111
f 99//109 100//112 103//113 102//110
f 101//111 102//110 114//114 111//115
f 102//110 103//113 104//116 114//114
f 97//2 105//117 108//118 107//119
f 105//117 106//120 109//121 108//118
f 107//119 108//118 103//113 100//112
f 108//118 109//121 104//116 103//113
f 98//7 110//122 113//123 112//124
f 110//122 111//115 114//114 113//123
f 112//124 113//123 109//121 106//120
f 113//123 114//114 104//116 109//121
f 115//10 118//125 121//126 120//127
f 118//125 119//128 122//129 121//126
f 120//127 121//126 133//130 130//131
f 121//126 122//129 123//132 133//130
f 116//20 124//133 127//134 126//135
f 124//133 125//136 128//137 127//134
f 126//135 127//134 122//129 119//128
f 127//134 128//137 123//132 122//129
f 117//5 129//138 132//139 131//140
f 129//138 130//131 133//130 132//139
f 131//140 132//139 128//137 125//136
f 132//139 133//130 123//132 128//137
f 134//13 137//141 140//142 139//143
f 137//141 138//144 141//145 140//142
f 139//143 140//142 152//146 149//147
f 140//142 141//145 142//148 152//146
f 135//6 143//149 146//150 145//151
f 143//149 144//152 147//153 146//150
f 145//151 146//150 141//145 138//144
f 146//150 147//153 142//148 141//145
f 136//19 148//154 151//155 150//156
f 148//154 149//147 152//146 151//155
f 150//156 151//155 147//153 144//152
f 151//155 152//146 142//148 147//153
f 153//12 156//25 159//26 158//27
f 156//25 157//28 160//29 159//26
f 158//27 159//26 171//30 168//31
f 159//26 160//29 161//157 171//30
f 154//4 162//33 165//34 164//35
f 162//33 163//36 166//37 165//34
f 164//35 165//34 160//29 157//28
f 165//34 166//37 161//157 160//29
f 155//21 167//39 170//40 169//41
f 167//39 168//31 171//30 170//40
f 169//41 170//40 166//37 163//36
f 170//40 171//30 161//157 166//37
f 172//3 175//42 178//43 177//44
f 175//42 176//45 179//46 178//43
f 177//44 178//43 190//47 187//48
f 178//43 179//46 180//158 190//47
f 173//15 181//50 184//51 183//52
f 181//50 182//53 185//54 184//51
f 183//52 184//51 179//46 176//45
f 184//51 185//54 180//158 179//46
f 174//22 186//56 189//57 188//58
f 186//56 187//48 190//47 189//57
f 188//58 189//57 185//54 182//53
f 189//57 190//47 180//158 185//54
f 191//9 194//59 197//60 196//61
f 194//59 195//62 198//63 197//60
f 196//61 197//60 209//64 206//65
f 197//60 198//63 199//159 209//64
f 192//24 200//68 203//69 202//70
f 200//68 201//71 204//72 203//69
f 202//70 203//69 198//63 195//62
f 203//69 204//72 199//159 198//63
f 193//17 205//73 208//74 207//75
f 205//73 206//65 209//64 208//74
f 207//75 208//74 204//72 201//71
f 208//74 209//64 199//159 204//72
f 210//14 213//76 216//77 215//78
f 213//76 214//79 217//80 216//77
f 215//78 216//77 228//81 225//82
f 216//77 217//80 218//160 228//81
f 211//18 219//84 222//85 221//86
f 219//84 220//87 223//88 222//85
f 221//86 222//85 217//80 214//79
f 222//85 223//88 218//160 217//80
f 212//23 224//90 227//91 226//92
f 224//90 225//82 228//81 227//91
f 226//92 227//91 223//88 220//87
f 227//91 228//81 218//160 223//88
f 229//11 231//93 234//94 233//95
f 231//93 232//96 235//97 234//94
f 233//95 234//94 246//98 243//99
f 234//94 235//97 236//161 246//98
f 3//38 237//101 240//102 239//103
f 237//101 238//104 241//105 240//102
f 239//103 240//102 235//97 232//96
f 240//102 241//105 236//161 235//97
f 230//1 242//106 245//107 244//108
f 242//106 243//99 246//98 245//107
f 244//108 245//107 241//105 238//104
f 245//107 246//98 236//161 241//105
f 247//16 249//109 252//110 251//111
f 249//109 250//112 253//113 252//110
f 251//111 252//110 264//114 261//115
f 252//110 253//113 254//162 264//114
f 248//2 255//117 258//118 257//119
f 255//117 256//120 259//121 258//118
f 257//119 258//118 253//113 250//112
f 258//118 259//121 254//162 253//113
f 22//163 260//122 263//123 262//124
f 260//122 261//115 264//114 263//123
f 262//124 263//123 259//121 256//120
f 263//123 264//114 254//162 259//121
f 265//10 267//125 270//126 269//127
f 267//125 268//128 271//129 270//126
f 269//127 270//126 282//130 279//131
f 270//126 271//129 272//164 282//130
f 266//20 273//133 276//134 275//135
f 273//133 274//136 277//137 276//134
f 275//135 276//134 271//129 268//128
f 276//134 277//137 272//164 271//129
f 40//67 278//138 281//139 280//140
f 278//138 279//131 282//130 281//139
f 280//140 281//139 277//137 274//136
f 281//139 282//130 272//164 277//137
f 283//13 285//141 288//142 287//143
f 285//141 286//144 289//145 288//142
f 287//143 288//142 300//146 297//147
f 288//142 289//145 290//165 300//146
f 60//166 291//149 294//150 293//151
f 291//149 292//152 295//153 294//150
f 293//151 294//150 289//145 286//144
f 294//150 295//153 290//165 289//145
f 284//19 296//154 299//155 298//156
f 296//154 297//147 300//146 299//155
f 298//156 299//155 295//153 292//152
f 299//155 300//146 290//165 295//153
f 39//9 1//12 6//27 42//59
f 42//59 6//27 16//31 43//62
f 43//62 16//31 15//39 50//70
f 50//70 15//39 3//38 40//67
f 2//4 20//3 25//44 10//33
f 10//33 25//44 35//48 11//36
f 11//36 35//48 34//56 17//41
f 17//41 34//56 22//55 3//38
f 21//15 58//14 63//78 29//50
f 29//50 63//78 73//82 30//53
f 30//53 73//82 72//90 36//58
f 36//58 72//90 60//89 22//55
f 59//18 41//17 55//75 67//84
f 67//84 55//75 49//71 68//87
f 68//87 49//71 48//68 74//92
f 74//92 48//68 40//67 60//89
f 115//10 39//9 44//61 118//125
f 118//125 44//61 54//65 119//128
f 119//128 54//65 53//73 126//135
f 126//135 53//73 41//17 116//20
f 58//14 134//13 139//143 61//76
f 61//76 139//143 149//147 62//79
f 62//79 149//147 148//154 69//86
f 69//86 148//154 136//19 59//18
f 135//6 117//5 131//140 143//149
f 143//149 131//140 125//136 144//152
f 144//152 125//136 124//133 150//156
f 150//156 124//133 116//20 136//19
f 77//11 115//10 120//127 80//93
f 80//93 120//127 130//131 81//96
f 81//96 130//131 129//138 88//103
f 88//103 129//138 117//5 78//8
f 134//13 96//16 101//111 137//141
f 137//141 101//111 111//115 138//144
f 138//144 111//115 110//122 145//151
f 145//151 110//122 98//7 135//6
f 97//2 79//1 93//108 105//117
f 105//117 93//108 87//104 106//120
f 106//120 87//104 86//101 112//124
f 112//124 86//101 78//8 98//7
f 1//12 77//11 82//95 4//25
f 4//25 82//95 92//99 5//28
f 5//28 92//99 91//106 12//35
f 12//35 91//106 79//1 2//4
f 96//16 21//15 31//52 99//109
f 99//109 31//52 24//45 100//112
f 100//112 24//45 23//42 107//119
f 107//119 23//42 20//3 97//2
f 191//9 153//12 158//27 194//59
f 194//59 158//27 168//31 195//62
f 195//62 168//31 167//39 202//70
f 202//70 167//39 155//21 192//24
f 154//4 172//3 177//44 162//33
f 162//33 177//44 187//48 163//36
f 163//36 187//48 186//56 169//41
f 169//41 186//56 174//22 155//21
f 173//15 210//14 215//78 181//50
f 181//50 215//78 225//82 182//53
f 182//53 225//82 224//90 188//58
f 188//58 224//90 212//23 174//22
f 211//18 193//17 207//75 219//84
f 219//84 207//75 201//71 220//87
f 220//87 201//71 200//68 226//92
f 226//92 200//68 192//24 212//23
f 265//10 191//9 196//61 267//125
f 267//125 196//61 206//65 268//128
f 268//128 206//65 205//73 275//135
f 275//135 205//73 193//17 266//20
f 210//14 283//13 287//143 213//76
f 213//76 287//143 297//147 214//79
f 214//79 297//147 296//154 221//86
f 221//86 296//154 284//19 211//18
f 60//166 40//67 280//140 291//149
f 291//149 280//140 274//136 292//152
f 292//152 274//136 273//133 298//156
f 298//156 273//133 266//20 284//19
f 229//11 265//10 269//127 231//93
f 231//93 269//127 279//131 232//96
f 232//96 279//131 278//138 239//103
f 239//103 278//138 40//67 3//38
f 283//13 247//16 251//111 285//141
f 285//141 251//111 261//115 286//144
f 286//144 261//115 260//122 293//151
f 293//151 260//122 22//163 60//166
f 248//2 230//1 244//108 255//117
f 255//117 244//108 238//104 256//120
f 256//120 238//104 237//101 262//124
f 262//124 237//101 3//38 22//163
f 153//12 229//11 233//95 156//25
f 156//25 233//95 243//99 157//28
f 157//28 243//99 242//106 164//35
f 164//35 242//106 230//1 154//4
f 247//16 173//15 183//52 249//109
f 249//109 183//52 176//45 250//112
f 250//112 176//45 175//42 257//119
f 257//119 175//42 172//3 248//2
f 39//9 115//10 77//11 1//12
